M48
;DRILL file {KiCad (5.0.0)} date 03/08/19 11:27:12
;FORMAT={3:3/ absolute / metric / suppress leading zeros}
FMAT,2
METRIC,TZ
T1C0.800
T2C0.920
T3C1.000
T4C2.330
%
G90
G05
M71
T1
X19685Y-40640
X20955Y-45720
X22225Y-38100
X23495Y-43180
X25400Y-39370
X30480Y-107315
X30480Y-125095
X30480Y-142875
X30480Y-160655
X30480Y-178435
X31750Y-116205
X31750Y-133985
X31750Y-151765
X31750Y-169545
X31750Y-187325
X38100Y-88265
X40640Y-88265
X42545Y-76835
X42545Y-116205
X42545Y-133985
X42545Y-151765
X42545Y-169545
X42545Y-187325
X43180Y-88265
X45720Y-88265
X48260Y-88265
X50800Y-53340
X50800Y-88265
X53340Y-76200
X53340Y-88265
X53340Y-116205
X53340Y-133985
X53340Y-151765
X53340Y-169545
X53340Y-187325
X53975Y-80010
X54610Y-77470
X55880Y-88265
X56515Y-66675
X58420Y-88265
X60960Y-77470
X60960Y-88265
X63500Y-88265
X64135Y-116205
X64135Y-133985
X64135Y-151765
X64135Y-169545
X64135Y-187325
X66040Y-88265
X66675Y-68580
X66675Y-71120
X68580Y-88265
X71120Y-88265
X73660Y-88265
X74930Y-116205
X74930Y-133985
X74930Y-151765
X74930Y-169545
X74930Y-187325
X76200Y-88265
X77470Y-80645
X82550Y-37465
X84455Y-31115
X85725Y-116205
X85725Y-133985
X85725Y-151765
X85725Y-169545
X85725Y-187325
X96520Y-116205
X96520Y-133985
X96520Y-151765
X96520Y-169545
X96520Y-187325
X107315Y-116205
X107315Y-133985
X107315Y-151765
X107315Y-169545
X107315Y-187325
X109855Y-41275
X112395Y-38735
X118110Y-116205
X118110Y-133985
X118110Y-151765
X118110Y-169545
X118110Y-187325
X120015Y-43815
X122555Y-29845
X125095Y-38735
X128905Y-116205
X128905Y-133985
X128905Y-151765
X128905Y-169545
X128905Y-187325
X132715Y-31115
X135255Y-43180
X135890Y-57150
X137795Y-39370
X139700Y-116205
X139700Y-133985
X139700Y-151765
X139700Y-169545
X139700Y-187325
X140335Y-31115
X144145Y-45085
X150495Y-116205
X150495Y-133985
X150495Y-151765
X150495Y-169545
X150495Y-187325
X151221Y-41275
X152400Y-60325
X152400Y-60325
X155008Y-62865
X160655Y-41275
X161290Y-116205
X161290Y-133985
X161290Y-151765
X161290Y-169545
X161290Y-187325
X170815Y-64770
X172085Y-116205
X172085Y-133985
X172085Y-151765
X172085Y-169545
X172085Y-187325
X173990Y-62865
X175260Y-66040
X182880Y-116205
X182880Y-133985
X182880Y-151765
X182880Y-169545
X182880Y-187325
X189230Y-69850
X193675Y-116205
X193675Y-133985
X193675Y-151765
X193675Y-169545
X193675Y-187325
X194945Y-67310
X197485Y-64770
X204470Y-111125
X204470Y-128905
X204470Y-146685
X204470Y-164465
X204470Y-182245
X206375Y-66675
X207645Y-63500
X210185Y-64770
X212725Y-67945
X213360Y-87630
X214630Y-95250
T2
X197525Y-32925
X197525Y-34925
X200025Y-32925
X200025Y-34925
T3
X214630Y-46990
X214630Y-49530
X214630Y-52070
X73660Y-58420
X214630Y-99060
X214630Y-101600
X140335Y-57785
X22225Y-85090
X24765Y-85090
X27305Y-85090
X29845Y-85090
X32385Y-85090
X191043Y-56972
X191103Y-41792
X193583Y-56972
X193643Y-41792
X196123Y-56972
X196183Y-41792
X198663Y-56972
X198723Y-41792
X201203Y-56972
X201263Y-41792
X203743Y-56972
X203803Y-41792
X206283Y-56972
X206343Y-41792
X208823Y-56972
X208883Y-41792
X158115Y-89535
X160655Y-89535
X163195Y-89535
X165735Y-89535
X168275Y-89535
X170815Y-89535
X173355Y-89535
X175895Y-89535
X178435Y-89535
X180975Y-89535
X183515Y-89535
X186055Y-89535
X188595Y-89535
X191135Y-89535
X193675Y-89535
X196215Y-89535
X200025Y-89535
X202565Y-89535
X205105Y-89535
X207645Y-89535
X210185Y-89535
X144145Y-57785
X150495Y-53975
X153035Y-53975
X155575Y-53975
X158115Y-53975
X160655Y-53975
X163195Y-53975
X165735Y-53975
X38100Y-85090
X40640Y-85090
X43180Y-85090
X45720Y-85090
X48260Y-85090
X50800Y-85090
X53340Y-85090
X55880Y-85090
X58420Y-85090
X60960Y-85090
X63500Y-85090
X66040Y-85090
X68580Y-85090
X71120Y-85090
X73660Y-85090
X76200Y-85090
X75565Y-33020
X78105Y-33020
X80645Y-33020
X86995Y-33020
X86995Y-35560
X86995Y-83820
X86995Y-86360
X89535Y-33020
X89535Y-35560
X89535Y-83820
X89535Y-86360
X92075Y-33020
X92075Y-35560
X92075Y-83820
X92075Y-86360
X94615Y-33020
X94615Y-35560
X94615Y-83820
X94615Y-86360
X97155Y-33020
X97155Y-35560
X97155Y-83820
X97155Y-86360
X99695Y-33020
X99695Y-35560
X99695Y-83820
X99695Y-86360
X102235Y-33020
X102235Y-35560
X102235Y-83820
X102235Y-86360
X104775Y-33020
X104775Y-35560
X104775Y-83820
X104775Y-86360
X107315Y-33020
X107315Y-35560
X107315Y-83820
X107315Y-86360
X109855Y-33020
X109855Y-35560
X109855Y-83820
X109855Y-86360
X112395Y-33020
X112395Y-35560
X112395Y-83820
X112395Y-86360
X114935Y-33020
X114935Y-35560
X114935Y-83820
X114935Y-86360
X117475Y-33020
X117475Y-35560
X117475Y-83820
X117475Y-86360
X120015Y-33020
X120015Y-35560
X120015Y-83820
X120015Y-86360
X122555Y-33020
X122555Y-35560
X122555Y-83820
X122555Y-86360
X125095Y-33020
X125095Y-35560
X125095Y-83820
X125095Y-86360
X127635Y-33020
X127635Y-35560
X127635Y-83820
X127635Y-86360
X130175Y-33020
X130175Y-35560
X130175Y-83820
X130175Y-86360
X132715Y-33020
X132715Y-35560
X132715Y-83820
X132715Y-86360
X135255Y-33020
X135255Y-35560
X135255Y-83820
X135255Y-86360
X137795Y-33020
X137795Y-35560
X137795Y-83820
X137795Y-86360
X140335Y-33020
X140335Y-35560
X140335Y-83820
X140335Y-86360
X142875Y-33020
X142875Y-35560
X142875Y-83820
X142875Y-86360
X145415Y-33020
X145415Y-35560
X145415Y-83820
X145415Y-86360
X147955Y-33020
X147955Y-35560
X147955Y-83820
X147955Y-86360
X136525Y-46990
X139065Y-46990
X141605Y-46990
X144145Y-46990
X146685Y-46990
X149225Y-46990
X151765Y-46990
X154305Y-46990
X156845Y-46990
X159385Y-46990
X161925Y-46990
X164465Y-46990
X167005Y-46990
X169545Y-46990
X172085Y-46990
X174625Y-46990
X45720Y-53340
X45720Y-55880
X75565Y-39370
X78105Y-39370
X80645Y-39370
T4
X192755Y-30215
X204795Y-30215
T0
M30
